<svg id="Layer_1" data-name="Layer 1" xmlns="http://www.w3.org/2000/svg" width="63.51" height="89.86" viewBox="0 0 63.51 89.86"><defs><style>.cls-1{fill:#a4893d;}</style></defs><title>cei-icon</title><path class="cls-1" d="M80.76,33.74a29.59,29.59,0,0,0-9.35-21.53,32,32,0,0,0-19-8.68V7.92a27.64,27.64,0,0,1,16,7.44,25.29,25.29,0,0,1,8,18.38A24.81,24.81,0,0,1,74,44.38,32.08,32.08,0,0,0,52.41,32.89v4.4A27.65,27.65,0,0,1,71.66,48.43a27.37,27.37,0,0,1-3.21,3.71,27.7,27.7,0,0,1-16,7.48V64A31.74,31.74,0,0,0,74.05,52.49a25,25,0,0,1,2.41,10.62c0,13.28-10.47,24.28-24,25.88v4.39c15.92-1.63,28.34-14.59,28.32-30.27a29.19,29.19,0,0,0-4-14.68A29.32,29.32,0,0,0,80.76,33.74Z" transform="translate(-17.31 -3.53)"/><path class="cls-1" d="M21.73,63.18A24.84,24.84,0,0,1,24.1,52.55,32,32,0,0,0,45.71,64V59.63A27.61,27.61,0,0,1,26.48,48.5,27.57,27.57,0,0,1,45.67,37.3V32.91A32.06,32.06,0,0,0,24.08,44.46a24.81,24.81,0,0,1-2.41-10.65,25.25,25.25,0,0,1,8-18.39,27.62,27.62,0,0,1,16-7.49V3.54a32,32,0,0,0-19,8.73,29.42,29.42,0,0,0-5.32,36.24,29.33,29.33,0,0,0-3.93,14.67c0,15.69,12.48,28.62,28.4,30.21V89C32.25,87.43,21.74,76.45,21.73,63.18Z" transform="translate(-17.31 -3.53)"/></svg>