<svg id="Layer_1" data-name="Layer 1" xmlns="http://www.w3.org/2000/svg" viewBox="0 0 312.32 57.59"><defs><style>.cls-1{fill:#0c233f;}.cls-2{fill:#a91e22;}.cls-3{fill:#0c233e;}</style></defs><polygon class="cls-1" points="8 29.3 5.2 29.26 3.74 31.58 2.73 28.87 0 28.03 2.17 26.39 1.95 23.55 4.31 25.25 6.9 24.34 6.18 27.03 8 29.3"/><polygon class="cls-1" points="46.06 10.3 43.26 10.25 41.8 12.57 40.79 9.87 38.06 9.02 40.23 7.38 40 4.55 42.36 6.25 44.95 5.33 44.23 8.02 46.06 10.3"/><polygon class="cls-1" points="10.24 41.65 7.44 41.61 5.97 43.93 4.96 41.22 2.23 40.38 4.41 38.74 4.18 35.91 6.54 37.6 9.13 36.69 8.41 39.38 10.24 41.65"/><polygon class="cls-1" points="33.98 5.74 31.18 5.71 29.71 8.02 28.7 5.31 25.98 4.47 28.15 2.83 27.93 0 30.28 1.69 32.88 0.78 32.16 3.47 33.98 5.74"/><polygon class="cls-2" points="21.25 8.81 18.45 8.77 16.99 11.09 15.98 8.38 13.25 7.53 15.43 5.9 15.21 3.06 17.56 4.76 20.14 3.85 19.43 6.53 21.25 8.81"/><polygon class="cls-3" points="11.94 17.37 9.13 17.34 7.67 19.66 6.67 16.95 3.94 16.1 6.11 14.46 5.89 11.63 8.24 13.33 10.84 12.41 10.12 15.1 11.94 17.37"/><polygon class="cls-1" points="49.38 28.64 52.18 28.72 53.67 26.43 54.64 29.15 57.36 30.04 55.16 31.64 55.33 34.48 53 32.74 50.4 33.61 51.16 30.94 49.38 28.64"/><polygon class="cls-1" points="10.98 47 13.78 47.08 15.29 44.8 16.25 47.52 18.96 48.4 16.76 50 16.94 52.84 14.61 51.11 12 51.98 12.77 49.3 10.98 47"/><polygon class="cls-1" points="47.36 16.25 50.16 16.34 51.66 14.04 52.62 16.77 55.34 17.65 53.14 19.26 53.31 22.09 50.99 20.36 48.38 21.23 49.15 18.55 47.36 16.25"/><polygon class="cls-1" points="22.99 51.75 25.79 51.84 27.29 49.55 28.25 52.26 30.97 53.16 28.76 54.76 28.94 57.59 26.61 55.86 24.01 56.73 24.77 54.05 22.99 51.75"/><polygon class="cls-1" points="35.77 48.9 38.56 48.98 40.07 46.7 41.03 49.42 43.74 50.3 41.54 51.9 41.71 54.74 39.39 53.01 36.79 53.88 37.55 51.2 35.77 48.9"/><polygon class="cls-1" points="45.23 40.49 48.04 40.57 49.53 38.28 50.5 41.01 53.21 41.89 51 43.5 51.18 46.33 48.85 44.6 46.25 45.47 47.02 42.79 45.23 40.49"/><path class="cls-1" d="M80.47,18.26h.72v6h-.77a5.88,5.88,0,0,0-1.81-3.91,5.56,5.56,0,0,0-3.9-1.4A5.12,5.12,0,0,0,71.35,20a3.46,3.46,0,0,0-1.28,2.81,4.64,4.64,0,0,0,1.06,3,18.13,18.13,0,0,0,4.57,3.45,20.46,20.46,0,0,1,5.49,4.26,6.66,6.66,0,0,1,1.41,4.18,7.36,7.36,0,0,1-7.33,7.34,14.22,14.22,0,0,1-4.48-1,5.84,5.84,0,0,0-1.42-.4c-.43,0-.75.33-1,1h-.77v-7h.77a6.18,6.18,0,0,0,6.21,6.35,5.44,5.44,0,0,0,3.76-1.26,4.24,4.24,0,0,0,1.41-3.34,4.65,4.65,0,0,0-1.16-3,20.29,20.29,0,0,0-4.86-3.68,22.32,22.32,0,0,1-4-2.94,7.11,7.11,0,0,1-1.49-2.37,7.77,7.77,0,0,1-.49-2.82,6.35,6.35,0,0,1,2-4.82A7,7,0,0,1,74.75,18a11.6,11.6,0,0,1,3.74.68,5.41,5.41,0,0,0,1.32.31.5.5,0,0,0,.41-.14A1.61,1.61,0,0,0,80.47,18.26Z" transform="translate(-1.78 -3.11)"/><path class="cls-1" d="M92.31,28.52v.75c-.9.13-1.35.6-1.35,1.4a2.76,2.76,0,0,0,.24,1l3.82,9,2.78-8.43a5.78,5.78,0,0,0,.33-1.65c0-.86-.53-1.31-1.6-1.37v-.75h5.65v.75a2.81,2.81,0,0,0-2.12.87A7.84,7.84,0,0,0,98.54,33L92.2,51.8A12,12,0,0,1,89.84,56a4,4,0,0,1-2.93,1.56,3.88,3.88,0,0,1-2-.68l1-2.75a3.86,3.86,0,0,0,1.55.38,3.27,3.27,0,0,0,2.37-.9,7.81,7.81,0,0,0,1.69-3l2.05-5.78L87.9,31.66a4.85,4.85,0,0,0-1.27-1.9,3.38,3.38,0,0,0-2-.49v-.75Z" transform="translate(-1.78 -3.11)"/><path class="cls-1" d="M118.85,28v5.62h-.77a6.41,6.41,0,0,0-1.93-3.47,4.94,4.94,0,0,0-3.41-1.27,4.72,4.72,0,0,0-3.86,1.84,7.36,7.36,0,0,0-1.5,4.79,9.15,9.15,0,0,0,1.77,5.63,5.15,5.15,0,0,0,4.21,2.37,6.57,6.57,0,0,0,3.22-.88,8.33,8.33,0,0,0,2.73-2.44V41.4a8.27,8.27,0,0,1-7,3.51,7.73,7.73,0,0,1-5.76-2.24,7.88,7.88,0,0,1-2.24-5.82,8.81,8.81,0,0,1,2.41-6.24A7.68,7.68,0,0,1,112.5,28a11,11,0,0,1,3.39.61,4.3,4.3,0,0,0,1.12.27c.45,0,.81-.3,1.07-.88Z" transform="translate(-1.78 -3.11)"/><path class="cls-1" d="M125.91,44.91a4.54,4.54,0,0,1-3.21-1.24,3.93,3.93,0,0,1-1.34-3,3.64,3.64,0,0,1,1.15-2.76,12.16,12.16,0,0,1,4.69-2.07,14.49,14.49,0,0,0,3-1.06V33.6a4,4,0,0,0-1-2.8,3.33,3.33,0,0,0-2.59-1.07,4.06,4.06,0,0,0-2.61.92,4.86,4.86,0,0,0-1.61,2.51l-.81-.22a6.14,6.14,0,0,1,2.1-3.56A5.76,5.76,0,0,1,127.49,28a5.41,5.41,0,0,1,5.75,5.84v6.84a6.86,6.86,0,0,0,.19,2,.71.71,0,0,0,.72.52.69.69,0,0,0,.57-.3,5,5,0,0,0,.5-1.24H136a3.7,3.7,0,0,1-.93,2.37,2.82,2.82,0,0,1-2.17.88,2.77,2.77,0,0,1-2.7-2.26,8.3,8.3,0,0,1-2.11,1.78A4.63,4.63,0,0,1,125.91,44.91Zm4.28-3.73V35.77c-.45.19-1.11.43-2,.73a7.3,7.3,0,0,0-3.06,1.61,3.27,3.27,0,0,0-.67,2.17,3.15,3.15,0,0,0,.71,2,2.14,2.14,0,0,0,1.7.87,3.72,3.72,0,0,0,1.89-.58A3.47,3.47,0,0,0,130.19,41.18Z" transform="translate(-1.78 -3.11)"/><path class="cls-1" d="M143.07,28v3.32h.08a7.53,7.53,0,0,1,2.54-2.42,6.2,6.2,0,0,1,3.13-.9,5.26,5.26,0,0,1,3.09.95,5.2,5.2,0,0,1,1.92,2.63Q156.38,28,159.72,28a5.46,5.46,0,0,1,3.87,1.44,5.13,5.13,0,0,1,1.54,3.93v8a2.18,2.18,0,0,0,.56,1.75,3.54,3.54,0,0,0,2.1.45v.79h-8.44v-.79a3.06,3.06,0,0,0,2.22-.56,4.26,4.26,0,0,0,.48-2.49V33a3.18,3.18,0,0,0-.92-2.41,3.51,3.51,0,0,0-2.53-.88q-2.5,0-4.5,3.08v8.53a2.29,2.29,0,0,0,.57,1.81,3.41,3.41,0,0,0,2.09.47v.79h-8.38v-.79c1.2,0,2-.19,2.23-.57a4.62,4.62,0,0,0,.43-2.48V33.2a3.41,3.41,0,0,0-.94-2.53,3.31,3.31,0,0,0-2.44-.94,4.48,4.48,0,0,0-2.54.84,6.53,6.53,0,0,0-2.05,2.24v8.66a2.08,2.08,0,0,0,.59,1.71,3.46,3.46,0,0,0,2.11.48v.75h-8.46v-.79a3.11,3.11,0,0,0,2.23-.55,3.23,3.23,0,0,0,.47-2V31.6a2.56,2.56,0,0,0-.51-1.78,2.27,2.27,0,0,0-1.71-.55h-1v-.75l5.5-.48Z" transform="translate(-1.78 -3.11)"/><path class="cls-1" d="M187.85,36.5a8,8,0,0,1-2.5,6,9.29,9.29,0,0,1-12.46,0,8,8,0,0,1-2.49-6,8.12,8.12,0,0,1,2.48-6.06,9.31,9.31,0,0,1,12.48,0A8.09,8.09,0,0,1,187.85,36.5Zm-3.32,0a9.44,9.44,0,0,0-1.45-5.5,4.82,4.82,0,0,0-7.91-.05,9.44,9.44,0,0,0-1.45,5.55A9.36,9.36,0,0,0,175.16,42a4.86,4.86,0,0,0,7.93,0A9.38,9.38,0,0,0,184.53,36.51Z" transform="translate(-1.78 -3.11)"/><path class="cls-1" d="M196.09,28v3.45a29.92,29.92,0,0,1,3.41-2.68,4,4,0,0,1,2-.77,4.39,4.39,0,0,1,2.92,1.25l-1.21,2.84a9.15,9.15,0,0,0-3.78-1.41c-.91,0-2,.64-3.38,1.93v8.77a2.25,2.25,0,0,0,.55,1.78,3.38,3.38,0,0,0,2.1.46v.75h-8.41v-.75a3.21,3.21,0,0,0,2.19-.53A4,4,0,0,0,193,40.6V31.89a2.87,2.87,0,0,0-.56-2.14,4.83,4.83,0,0,0-2.73-.48v-.75l5.58-.48Z" transform="translate(-1.78 -3.11)"/><path class="cls-1" d="M221.27,40.32v1.17a9.53,9.53,0,0,1-3,2.63,7.64,7.64,0,0,1-3.61.79,8.54,8.54,0,0,1-6.17-2.34,7.88,7.88,0,0,1-2.42-5.94,8.64,8.64,0,0,1,2.31-6.11A7.5,7.5,0,0,1,214.1,28a7,7,0,0,1,4.84,1.87A5.82,5.82,0,0,1,221,34.37v.33H209.29v.22a12.09,12.09,0,0,0,.8,4.58,6.92,6.92,0,0,0,2.34,3,5.48,5.48,0,0,0,3.21,1.1,5.23,5.23,0,0,0,2.67-.65A14.49,14.49,0,0,0,221.27,40.32Zm-12-6.39H218v-.31a4.64,4.64,0,0,0-1.22-3.38,4.06,4.06,0,0,0-3-1.26,4,4,0,0,0-3.11,1.32A5.76,5.76,0,0,0,209.29,33.93Z" transform="translate(-1.78 -3.11)"/><path class="cls-1" d="M245.68,19.89h-3.91V39.7a6,6,0,0,0,.57,3.15,2.56,2.56,0,0,0,2.22.81v.75h-9.12v-.75a2.57,2.57,0,0,0,2.31-.93,6,6,0,0,0,.61-3.16V19.89h-3.73a6.92,6.92,0,0,0-3.9.85,3.57,3.57,0,0,0-1.38,2.84h-.77V17.67h.77q1,1,3.87,1h13.51c2,0,3.31-.32,4.09-1h.81v5.91h-.5a4.41,4.41,0,0,0-1.73-2.91A7.11,7.11,0,0,0,245.68,19.89Z" transform="translate(-1.78 -3.11)"/><path class="cls-1" d="M256.31,28v3.45a30.73,30.73,0,0,1,3.42-2.68,4,4,0,0,1,2-.77,4.37,4.37,0,0,1,2.92,1.25l-1.2,2.84a9.15,9.15,0,0,0-3.78-1.41c-.91,0-2,.64-3.39,1.93v8.77a2.29,2.29,0,0,0,.55,1.78,3.43,3.43,0,0,0,2.11.46v.75h-8.41v-.75a3.16,3.16,0,0,0,2.18-.53,4,4,0,0,0,.52-2.53V31.89a2.92,2.92,0,0,0-.56-2.14,4.89,4.89,0,0,0-2.74-.48v-.75l5.58-.48Z" transform="translate(-1.78 -3.11)"/><path class="cls-1" d="M282.83,28h.75V41.42a2.25,2.25,0,0,0,.56,1.78,3.62,3.62,0,0,0,2.19.46v.75l-5.81.31V41.79h-.08a7,7,0,0,1-5.58,3.12,4.94,4.94,0,0,1-3.75-1.53,5.36,5.36,0,0,1-1.46-3.84V31.38a1.93,1.93,0,0,0-.62-1.67,4.06,4.06,0,0,0-2.22-.44v-.75l5.12-.48h.77V39.42a3.35,3.35,0,0,0,3.61,3.6c1.52,0,2.93-.87,4.21-2.61V31.8c0-1.1-.16-1.79-.5-2.07a5,5,0,0,0-2.59-.46v-.75Z" transform="translate(-1.78 -3.11)"/><path class="cls-1" d="M298.67,28v4.9h-.9A4.78,4.78,0,0,0,296.46,30a3.67,3.67,0,0,0-2.66-1.08,2.94,2.94,0,0,0-1.91.59,1.93,1.93,0,0,0-.73,1.58,2.44,2.44,0,0,0,.67,1.71,9.85,9.85,0,0,0,2.91,1.76,10.54,10.54,0,0,1,3.84,2.53,4.62,4.62,0,0,1,.93,2.9A4.69,4.69,0,0,1,298,43.45a4.88,4.88,0,0,1-3.54,1.46,7.19,7.19,0,0,1-2.79-.77,4.36,4.36,0,0,0-1.25-.41.94.94,0,0,0-.71.3,1.32,1.32,0,0,0-.33.77h-.77V39.38h.77a5.92,5.92,0,0,0,1.85,3.4A4.78,4.78,0,0,0,294.52,44a2.71,2.71,0,0,0,2-.79,2.62,2.62,0,0,0,.8-2,2.79,2.79,0,0,0-.74-1.94,10.08,10.08,0,0,0-3.19-1.91,10.32,10.32,0,0,1-3.65-2.27,3.87,3.87,0,0,1-.88-2.55,4.27,4.27,0,0,1,1.44-3.22A4.83,4.83,0,0,1,293.71,28a5.22,5.22,0,0,1,2,.44,3.69,3.69,0,0,0,1.25.31,1,1,0,0,0,1-.75Z" transform="translate(-1.78 -3.11)"/><path class="cls-1" d="M307,23.07h.77v5.36h5.54V29.6h-5.54V39.86a3.66,3.66,0,0,0,.75,2.47,2.65,2.65,0,0,0,2.13.87,3.91,3.91,0,0,0,3-1.54l.5.59a6,6,0,0,1-4.81,2.66A4.47,4.47,0,0,1,306,43.62a4.57,4.57,0,0,1-1.27-3.34V29.6h-3v-.77A12,12,0,0,0,307,23.07Z" transform="translate(-1.78 -3.11)"/></svg>